<svg xmlns="http://www.w3.org/2000/svg" width="25.61" height="25.83" viewBox="0 0 25.61 25.83"><defs><style>.a{fill:#d1dbe2;}</style></defs><g transform="translate(-0.501 0)"><path class="a" d="M25.732,15.707l-1.411-.814a2.283,2.283,0,0,1,0-3.954l1.411-.814a.757.757,0,0,0,.277-1.034L22.97,3.826a.757.757,0,0,0-1.034-.277l-1.411.814A2.282,2.282,0,0,1,17.1,2.386V.757A.757.757,0,0,0,16.345,0H10.266a.757.757,0,0,0-.757.757V2.386A2.282,2.282,0,0,1,6.086,4.363L4.675,3.549a.757.757,0,0,0-1.034.277L.6,9.09a.757.757,0,0,0,.277,1.034l1.411.814a2.283,2.283,0,0,1,0,3.954l-1.41.814A.757.757,0,0,0,.6,16.741l3.039,5.265a.757.757,0,0,0,1.034.277l1.411-.814a2.282,2.282,0,0,1,3.424,1.977v1.629a.757.757,0,0,0,.757.757h6.078a.757.757,0,0,0,.757-.757V23.445a2.282,2.282,0,0,1,3.424-1.977l1.411.814a.757.757,0,0,0,1.034-.277l3.039-5.265a.757.757,0,0,0-.277-1.034Zm-3.695,4.886-.755-.436a3.8,3.8,0,0,0-5.694,3.288v.872H11.023v-.872a3.8,3.8,0,0,0-5.694-3.288l-.755.436L2.291,16.639l.755-.436a3.8,3.8,0,0,0,0-6.575l-.755-.436L4.574,5.238l.755.436a3.8,3.8,0,0,0,5.694-3.288V1.514h4.565v.872a3.8,3.8,0,0,0,5.694,3.288l.755-.436L24.32,9.192l-.755.436a3.8,3.8,0,0,0,0,6.575l.755.436Zm0,0"/><path class="a" d="M154.621,151a5.3,5.3,0,1,0,5.3,5.3A5.3,5.3,0,0,0,154.621,151Zm0,9.081A3.784,3.784,0,1,1,158.4,156.3,3.788,3.788,0,0,1,154.621,160.081Zm0,0" transform="translate(-141.315 -143.382)"/></g></svg>