<svg xmlns="http://www.w3.org/2000/svg" width="22.205" height="22.205" viewBox="0 0 22.205 22.205"><defs><style>.a{fill:rgba(0,0,0,0);stroke:#4285f4;stroke-width:1.4px;}</style></defs><path class="a" d="M3.659,13.806a.459.459,0,0,1-.459-.459V3.659A.459.459,0,0,1,3.659,3.2H10.8a.459.459,0,0,1,.459.459v9.689a.459.459,0,0,1-.459.459Zm0,10.2a.459.459,0,0,1-.459-.459V18.957a.459.459,0,0,1,.459-.459H10.8a.459.459,0,0,1,.459.459v4.589A.459.459,0,0,1,10.8,24Zm12.748,0a.459.459,0,0,1-.459-.459V13.857a.459.459,0,0,1,.459-.459h7.139a.459.459,0,0,1,.459.459v9.689a.459.459,0,0,1-.459.459ZM15.948,3.659a.459.459,0,0,1,.459-.459h7.139A.459.459,0,0,1,24,3.659V8.248a.459.459,0,0,1-.459.459H16.407a.459.459,0,0,1-.459-.459Z" transform="translate(-2.5 -2.5)"/></svg>