<svg xmlns="http://www.w3.org/2000/svg" width="266.751" height="32.72" viewBox="0 0 266.751 32.72"><defs><style>.a{fill:#f58220;}.b{fill:#fff;}.c{fill:#25292b;}.d{fill:none;stroke:#d1dbe2;}.e{fill:#4285f4;font-size:20px;font-family:ArialMT, Arial;}.f{font-size:15px;}</style></defs><g transform="translate(-87.249 -16.28)"><g transform="translate(87.249 16.28)"><path class="a" d="M28.439,0,12.425,27.746,0,12.769,28.439,0Z"/><path class="b" d="M15.515,30.656H16.9a.344.344,0,0,0,.389-.389v-8.6a.426.426,0,0,0-.086-.3.4.4,0,0,0-.3-.093h-.518a1.91,1.91,0,0,0-1.569.921,3.492,3.492,0,0,0-.562,1.476,9.064,9.064,0,0,0-.144,1.3h-.4l.115-4.118h8.265l.115,4.118h-.4a9.067,9.067,0,0,0-.144-1.3,3.492,3.492,0,0,0-.562-1.476,1.91,1.91,0,0,0-1.569-.922H19a.4.4,0,0,0-.3.093.426.426,0,0,0-.086.3v8.6a.344.344,0,0,0,.389.389h1.382v.461H15.515v-.461Z" transform="translate(-6.144 -9.357)"/><path class="a" d="M48.058,31.543h.971a.309.309,0,0,0,.231-.067.333.333,0,0,0,.061-.225V24.09a.387.387,0,0,0-.121-.3.471.471,0,0,0-.328-.109,1.325,1.325,0,0,0-1.044.625,4.272,4.272,0,0,0-.7,1.463,7.027,7.027,0,0,0-.188.759q-.054.309-.067.382H46.48l.1-3.617H53.86l.1,3.617h-.388q-.012-.073-.067-.382a7.055,7.055,0,0,0-.188-.759,4.278,4.278,0,0,0-.7-1.463,1.326,1.326,0,0,0-1.044-.625.471.471,0,0,0-.328.109.387.387,0,0,0-.121.3v7.161a.246.246,0,0,0,.291.291h.971v.388H48.058v-.388Z" transform="translate(-20.844 -10.444)"/><path class="a" d="M61.8,33.87h.461a.161.161,0,0,0,.194-.194V28.893a.161.161,0,0,0-.194-.194H61.8v-.291H63.86v1.2l.061.012a2.8,2.8,0,0,1,.552-.959,1.053,1.053,0,0,1,.8-.4.913.913,0,0,1,.716.316,1.164,1.164,0,0,1,.279.8,1.2,1.2,0,0,1-.255.771.777.777,0,0,1-.631.322.822.822,0,0,1-.558-.2.626.626,0,0,1-.231-.492,1.007,1.007,0,0,1,.291-.631.572.572,0,0,0,.17-.279q0-.121-.134-.121-.243,0-.492.352a2.965,2.965,0,0,0-.406.922,4.535,4.535,0,0,0-.158,1.214v2.44a.161.161,0,0,0,.194.194h.388v.291H61.8V33.87Z" transform="translate(-27.713 -12.674)"/><path class="a" d="M74.109,34.307a2.3,2.3,0,0,1-1.341-.407,2.718,2.718,0,0,1-.916-1.1,3.5,3.5,0,0,1-.328-1.517,3.555,3.555,0,0,1,.328-1.542,2.7,2.7,0,0,1,.892-1.086,2.1,2.1,0,0,1,1.232-.395,1.749,1.749,0,0,1,1.274.528,2.6,2.6,0,0,1,.7,1.39,6.226,6.226,0,0,1,.085,1.214H73.077q0,.583.024.916a3.455,3.455,0,0,0,.109.649,1.331,1.331,0,0,0,.419.716,1.072,1.072,0,0,0,.722.267,1.119,1.119,0,0,0,.959-.522,2.564,2.564,0,0,0,.437-1.226h.316a2.833,2.833,0,0,1-.546,1.475,1.642,1.642,0,0,1-1.408.637Zm.522-3.253a7.932,7.932,0,0,0-.164-1.887q-.164-.613-.613-.613t-.613.613a7.932,7.932,0,0,0-.164,1.887Z" transform="translate(-32.075 -12.674)"/><path class="a" d="M84.1,32.077a1.678,1.678,0,0,1-1.129-.431,2.871,2.871,0,0,1-.777-1.129,3.9,3.9,0,0,1-.279-1.463,4.045,4.045,0,0,1,.267-1.469,2.835,2.835,0,0,1,.753-1.123,1.633,1.633,0,0,1,1.117-.431,1.113,1.113,0,0,1,.692.231,1.714,1.714,0,0,1,.5.631l.073-.024v-3.1a.161.161,0,0,0-.194-.194h-.68v-.291h2.282v8.157a.161.161,0,0,0,.194.194h.68v.291H85.31v-.7h-.073a1.745,1.745,0,0,1-.455.595,1.023,1.023,0,0,1-.686.255Zm.17-.389a.65.65,0,0,0,.516-.346,2.892,2.892,0,0,0,.382-.941,6.26,6.26,0,0,0-.024-2.792,2.45,2.45,0,0,0-.413-.9.652.652,0,0,0-.461-.291q-.8,0-.8,2.634t.8,2.634Z" transform="translate(-36.733 -10.444)"/><path class="a" d="M96.336,34.307a2.3,2.3,0,0,1-1.341-.407,2.718,2.718,0,0,1-.916-1.1,3.5,3.5,0,0,1-.328-1.517,3.555,3.555,0,0,1,.328-1.542,2.7,2.7,0,0,1,.892-1.086,2.1,2.1,0,0,1,1.232-.395,1.749,1.749,0,0,1,1.274.528,2.6,2.6,0,0,1,.7,1.39,6.226,6.226,0,0,1,.085,1.214H95.3q0,.583.024.916a3.456,3.456,0,0,0,.109.649,1.332,1.332,0,0,0,.419.716,1.072,1.072,0,0,0,.722.267,1.119,1.119,0,0,0,.959-.522,2.564,2.564,0,0,0,.437-1.226h.316a2.833,2.833,0,0,1-.546,1.475,1.642,1.642,0,0,1-1.408.637Zm.522-3.253a7.932,7.932,0,0,0-.164-1.887q-.164-.613-.613-.613t-.613.613a7.932,7.932,0,0,0-.164,1.887Z" transform="translate(-42.042 -12.674)"/><path class="a" d="M103.962,33.87h.461a.161.161,0,0,0,.194-.194V28.893a.161.161,0,0,0-.194-.194h-.461v-.291h2.063v1.08l.061.012a2.447,2.447,0,0,1,.625-.9,1.3,1.3,0,0,1,.88-.334,1.8,1.8,0,0,1,.522.067,1.5,1.5,0,0,1,.413.2,1.482,1.482,0,0,1,.48.607,1.922,1.922,0,0,1,.176.8v3.739a.161.161,0,0,0,.194.194h.461v.291h-2.646V33.87h.389a.161.161,0,0,0,.194-.194v-4.09q0-.935-.558-.935a.749.749,0,0,0-.534.34,2.83,2.83,0,0,0-.467.9,3.7,3.7,0,0,0-.188,1.19v2.6a.161.161,0,0,0,.194.194h.388v.291h-2.646V33.87Z" transform="translate(-46.622 -12.674)"/><path class="a" d="M118.959,34.306a2.3,2.3,0,0,1-1.341-.407,2.718,2.718,0,0,1-.916-1.1,3.5,3.5,0,0,1-.328-1.517,3.554,3.554,0,0,1,.322-1.517,2.673,2.673,0,0,1,.91-1.1,2.284,2.284,0,0,1,1.329-.407,1.833,1.833,0,0,1,.977.243,1.567,1.567,0,0,1,.589.619,1.675,1.675,0,0,1,.194.777,1.151,1.151,0,0,1-.267.759.81.81,0,0,1-.643.322.664.664,0,0,1-.461-.164.566.566,0,0,1-.182-.443.863.863,0,0,1,.389-.643.669.669,0,0,0,.291-.5.689.689,0,0,0-.188-.467.764.764,0,0,0-.6-.212q-.571,0-.838.722a6,6,0,0,0-.267,2.009q0,.643.024,1a3.5,3.5,0,0,0,.11.674,1.332,1.332,0,0,0,.419.716,1.072,1.072,0,0,0,.722.267,1.119,1.119,0,0,0,.959-.522,2.564,2.564,0,0,0,.437-1.226h.316a2.833,2.833,0,0,1-.546,1.475,1.642,1.642,0,0,1-1.408.637Z" transform="translate(-52.187 -12.673)"/><path class="a" d="M129.259,34.307a2.3,2.3,0,0,1-1.341-.407A2.718,2.718,0,0,1,127,32.8a3.5,3.5,0,0,1-.328-1.517A3.555,3.555,0,0,1,127,29.743a2.7,2.7,0,0,1,.892-1.086,2.1,2.1,0,0,1,1.232-.395,1.749,1.749,0,0,1,1.274.528,2.6,2.6,0,0,1,.7,1.39,6.227,6.227,0,0,1,.085,1.214h-2.962q0,.583.024.916a3.452,3.452,0,0,0,.109.649,1.332,1.332,0,0,0,.419.716,1.072,1.072,0,0,0,.722.267,1.119,1.119,0,0,0,.959-.522,2.564,2.564,0,0,0,.437-1.226h.316a2.833,2.833,0,0,1-.546,1.475,1.642,1.642,0,0,1-1.408.637Zm.522-3.253a7.932,7.932,0,0,0-.164-1.887q-.164-.613-.613-.613t-.613.613a7.933,7.933,0,0,0-.164,1.887Z" transform="translate(-56.806 -12.674)"/><path class="c" d="M52.427,45.292l.581.136a1.785,1.785,0,0,1-.654,1.007,1.9,1.9,0,0,1-1.156.347,2.2,2.2,0,0,1-1.15-.267,1.692,1.692,0,0,1-.674-.772,2.582,2.582,0,0,1-.231-1.086,2.24,2.24,0,0,1,.261-1.1,1.724,1.724,0,0,1,.743-.716,2.306,2.306,0,0,1,1.06-.244,1.889,1.889,0,0,1,1.1.31,1.6,1.6,0,0,1,.624.87l-.569.125A1.121,1.121,0,0,0,51.2,43.05a1.5,1.5,0,0,0-.842.224,1.191,1.191,0,0,0-.475.6,2.258,2.258,0,0,0-.137.779,2.311,2.311,0,0,0,.162.9,1.142,1.142,0,0,0,.5.577,1.494,1.494,0,0,0,.741.191,1.229,1.229,0,0,0,1.277-1.031Z" transform="translate(-22.038 -19.1)"/><path class="c" d="M56.957,46.156a1.451,1.451,0,0,1,.49-1.206,1.552,1.552,0,0,1,1-.326,1.488,1.488,0,0,1,1.069.4,1.44,1.44,0,0,1,.415,1.094,1.814,1.814,0,0,1-.184.89,1.253,1.253,0,0,1-.535.5,1.655,1.655,0,0,1-.766.179,1.393,1.393,0,0,1-1.488-1.531Zm.55,0a1.18,1.18,0,0,0,.266.843.939.939,0,0,0,1.34,0,1.21,1.21,0,0,0,.266-.858,1.145,1.145,0,0,0-.268-.823.94.94,0,0,0-1.338,0,1.177,1.177,0,0,0-.266.841Z" transform="translate(-25.539 -20.011)"/><path class="c" d="M63.5,47.625V44.686h.483V45.1a1.17,1.17,0,0,1,1.008-.479,1.419,1.419,0,0,1,.527.1.825.825,0,0,1,.36.25.919.919,0,0,1,.167.367,2.721,2.721,0,0,1,.03.484v1.8h-.538V45.839a1.25,1.25,0,0,0-.062-.455.5.5,0,0,0-.222-.241.753.753,0,0,0-.374-.09.908.908,0,0,0-.591.2.948.948,0,0,0-.249.765v1.6Z" transform="translate(-28.475 -20.011)"/><path class="c" d="M69.665,47.625V44.686h.483V45.1a1.17,1.17,0,0,1,1.008-.479,1.419,1.419,0,0,1,.527.1.825.825,0,0,1,.36.25.919.919,0,0,1,.167.367,2.7,2.7,0,0,1,.03.484v1.8H71.7V45.839a1.249,1.249,0,0,0-.062-.455.5.5,0,0,0-.222-.241.753.753,0,0,0-.374-.09.908.908,0,0,0-.591.2.948.948,0,0,0-.249.765v1.6Z" transform="translate(-31.241 -20.011)"/><path class="c" d="M77.851,46.674l.557.068a1.243,1.243,0,0,1-.485.7,1.548,1.548,0,0,1-.906.248,1.51,1.51,0,0,1-1.1-.4,1.477,1.477,0,0,1-.407-1.111,1.544,1.544,0,0,1,.411-1.148,1.448,1.448,0,0,1,1.067-.409,1.406,1.406,0,0,1,1.037.4,1.52,1.52,0,0,1,.4,1.127c0,.029,0,.073,0,.132H76.059a1.08,1.08,0,0,0,.3.74.914.914,0,0,0,.662.257.863.863,0,0,0,.5-.144.956.956,0,0,0,.331-.462Zm-1.762-.8h1.768a.95.95,0,0,0-.2-.556.849.849,0,0,0-.665-.288.867.867,0,0,0-.9.844Z" transform="translate(-33.86 -20.011)"/><path class="c" d="M83.942,46.549l.526.068a1.233,1.233,0,0,1-.442.786,1.36,1.36,0,0,1-.876.284,1.416,1.416,0,0,1-1.045-.393,1.519,1.519,0,0,1-.4-1.127,1.914,1.914,0,0,1,.17-.831A1.125,1.125,0,0,1,82.4,44.8a1.629,1.629,0,0,1,.756-.178,1.385,1.385,0,0,1,.844.242,1.092,1.092,0,0,1,.421.687l-.52.074a.79.79,0,0,0-.265-.445.721.721,0,0,0-.459-.149.87.87,0,0,0-.662.269,1.211,1.211,0,0,0-.254.852,1.25,1.25,0,0,0,.245.859.829.829,0,0,0,.639.268.787.787,0,0,0,.529-.179.856.856,0,0,0,.269-.551Z" transform="translate(-36.641 -20.011)"/><path class="c" d="M88.465,46.4l.073.44a2.158,2.158,0,0,1-.4.044.978.978,0,0,1-.454-.086.5.5,0,0,1-.226-.225,1.669,1.669,0,0,1-.065-.589V44.289h-.4V43.9h.4v-.727l.538-.3V43.9h.538v.385h-.538V46.01a.8.8,0,0,0,.029.275.212.212,0,0,0,.092.1.386.386,0,0,0,.184.036,1.807,1.807,0,0,0,.234-.02Z" transform="translate(-39.011 -19.229)"/><path class="c" d="M94.627,46.4l.073.44a2.16,2.16,0,0,1-.4.044.978.978,0,0,1-.454-.086.5.5,0,0,1-.226-.225,1.665,1.665,0,0,1-.065-.589V44.289h-.4V43.9h.4v-.727l.538-.3V43.9h.538v.385h-.538V46.01a.792.792,0,0,0,.029.275.212.212,0,0,0,.092.1.387.387,0,0,0,.184.036,1.808,1.808,0,0,0,.234-.02Z" transform="translate(-41.774 -19.229)"/><path class="c" d="M96.788,46.77V42.716h.538v1.459a1.23,1.23,0,0,1,.946-.406,1.357,1.357,0,0,1,.61.128.785.785,0,0,1,.37.355,1.537,1.537,0,0,1,.111.658v1.86h-.538V44.912a.735.735,0,0,0-.173-.543.673.673,0,0,0-.491-.17.916.916,0,0,0-.447.114.668.668,0,0,0-.3.311,1.338,1.338,0,0,0-.089.541v1.6Z" transform="translate(-43.405 -19.156)"/><path class="c" d="M104.975,46.674l.557.068a1.244,1.244,0,0,1-.485.7,1.547,1.547,0,0,1-.906.248,1.51,1.51,0,0,1-1.1-.4,1.477,1.477,0,0,1-.407-1.111,1.545,1.545,0,0,1,.411-1.148,1.448,1.448,0,0,1,1.067-.409,1.406,1.406,0,0,1,1.037.4,1.52,1.52,0,0,1,.4,1.127c0,.029,0,.073,0,.132h-2.364a1.081,1.081,0,0,0,.3.74.914.914,0,0,0,.662.257.863.863,0,0,0,.5-.144.956.956,0,0,0,.331-.462Zm-1.762-.8h1.768a.949.949,0,0,0-.2-.556.849.849,0,0,0-.665-.288.867.867,0,0,0-.9.844Z" transform="translate(-46.024 -20.011)"/><path class="c" d="M112.327,46.769V42.715h1.509a3.948,3.948,0,0,1,.78.058,1.544,1.544,0,0,1,.642.291,1.646,1.646,0,0,1,.518.693,2.523,2.523,0,0,1,.172.964,2.642,2.642,0,0,1-.116.818,1.926,1.926,0,0,1-.3.591,1.534,1.534,0,0,1-.4.367,1.685,1.685,0,0,1-.522.2,3.215,3.215,0,0,1-.7.069Zm.581-.476h.934a2.428,2.428,0,0,0,.679-.075.993.993,0,0,0,.392-.21,1.269,1.269,0,0,0,.32-.514,2.35,2.35,0,0,0,.115-.782,1.784,1.784,0,0,0-.225-.979,1.1,1.1,0,0,0-.548-.459,2.413,2.413,0,0,0-.749-.083h-.919v3.1Z" transform="translate(-50.373 -19.155)"/><path class="c" d="M119.842,46.156a1.45,1.45,0,0,1,.49-1.206,1.552,1.552,0,0,1,1-.326,1.487,1.487,0,0,1,1.069.4,1.44,1.44,0,0,1,.415,1.094,1.812,1.812,0,0,1-.184.89,1.253,1.253,0,0,1-.535.5,1.655,1.655,0,0,1-.766.179,1.393,1.393,0,0,1-1.488-1.531Zm.55,0a1.18,1.18,0,0,0,.266.843A.939.939,0,0,0,122,47a1.209,1.209,0,0,0,.266-.858,1.145,1.145,0,0,0-.268-.823.94.94,0,0,0-1.337,0,1.177,1.177,0,0,0-.266.841Z" transform="translate(-53.74 -20.011)"/><path class="c" d="M127.3,46.4l.073.44a2.159,2.159,0,0,1-.4.044.978.978,0,0,1-.454-.086.5.5,0,0,1-.226-.225,1.663,1.663,0,0,1-.066-.589V44.289h-.4V43.9h.4v-.727l.538-.3V43.9h.538v.385h-.538V46.01a.8.8,0,0,0,.028.275.212.212,0,0,0,.092.1.386.386,0,0,0,.184.036,1.811,1.811,0,0,0,.235-.02Z" transform="translate(-56.427 -19.229)"/><path class="c" d="M129.074,46.748l.532-.079a.674.674,0,0,0,.25.454.924.924,0,0,0,.573.158.894.894,0,0,0,.551-.14.407.407,0,0,0,.179-.328.3.3,0,0,0-.161-.265,2.572,2.572,0,0,0-.551-.169,5.308,5.308,0,0,1-.818-.238.783.783,0,0,1-.346-.279.7.7,0,0,1-.118-.393.716.716,0,0,1,.1-.363.836.836,0,0,1,.264-.277,1.171,1.171,0,0,1,.341-.144,1.751,1.751,0,0,1,.464-.059,1.941,1.941,0,0,1,.654.1.891.891,0,0,1,.417.27,1.023,1.023,0,0,1,.184.457l-.526.068a.531.531,0,0,0-.207-.359.792.792,0,0,0-.484-.128.931.931,0,0,0-.527.113.326.326,0,0,0-.158.265.265.265,0,0,0,.065.174.478.478,0,0,0,.206.132c.054.019.211.061.474.127a7.092,7.092,0,0,1,.8.23.8.8,0,0,1,.355.26.683.683,0,0,1,.129.426.785.785,0,0,1-.157.467,1.008,1.008,0,0,1-.453.34,1.768,1.768,0,0,1-.67.12,1.589,1.589,0,0,1-.943-.237,1.086,1.086,0,0,1-.414-.7Z" transform="translate(-57.883 -20.012)"/></g><line class="d" y2="29" transform="translate(170.5 17.5)"/><text class="e" transform="translate(178 44)"><tspan x="0" y="0">Data Ingestion </tspan><tspan class="f" y="0">TOOL</tspan></text></g></svg>