<svg xmlns="http://www.w3.org/2000/svg" xmlns:xlink="http://www.w3.org/1999/xlink" width="1553.847" height="321.308" viewBox="0 0 1553.847 321.308"><defs><style>.a{opacity:0.7;}.a,.f{fill:url(#a);}.b,.g,.j{fill:none;}.b,.d,.g{stroke:#b4bdca;}.b,.c,.d,.e,.g,.h{stroke-width:2px;}.b{opacity:0.39;}.c,.d,.e,.h{fill:#fff;}.c{stroke:#a4a1fb;}.e{stroke:#d1dbe2;}.f{opacity:0.6;}.g{opacity:0.25;}.h{stroke:#55d8fe;}.i{stroke:none;}</style><linearGradient id="a" x1="0.5" x2="0.5" y2="1" gradientUnits="objectBoundingBox"><stop offset="0" stop-color="#d1dbe2"/><stop offset="1" stop-color="#fff" stop-opacity="0"/></linearGradient></defs><g transform="translate(138.379 -668)"><g transform="translate(-138.379 668)"><path class="a" d="M330,568.259V442.617s177.664,82.41,319.619,87.586c153.5-5.016,180.077-40.285,299.64-87.586,102.172-39.426,204.064-50.247,301.863-47.461s182.564,45.376,298.087,49.741c203.8-17.584,307.772-106.488,321.542-143.62v313.71L330,615.126Z" transform="translate(-322.93 -293.818)"/><path class="b" d="M313,388.374s176.517,84.375,316.084,86.192,193.175-43.541,300.074-86.08,208.524-49.8,302.085-48.368,184.516,46.007,299.474,48.373,300.938-77.055,321.618-143.251" transform="translate(-304.516 -239.247)"/><g class="c" transform="translate(1539.727 0)"><circle class="i" cx="7.06" cy="7.06" r="7.06"/><circle class="j" cx="7.06" cy="7.06" r="6.06"/></g><g class="d" transform="translate(1217.36 142.767)"><circle class="i" cx="7.06" cy="7.06" r="7.06"/><circle class="j" cx="7.06" cy="7.06" r="6.06"/></g><g class="d" transform="translate(919.029 94.707)"><circle class="i" cx="7.06" cy="7.06" r="7.06"/><circle class="j" cx="7.06" cy="7.06" r="6.06"/></g><g class="e" transform="translate(617.87 142.767)"><circle class="i" cx="7.06" cy="7.06" r="7.06"/><circle class="j" cx="7.06" cy="7.06" r="6.06"/></g><g class="d" transform="translate(318.126 228.993)"><circle class="i" cx="7.06" cy="7.06" r="7.06"/><circle class="j" cx="7.06" cy="7.06" r="6.06"/></g><g class="c" transform="translate(0 141.353)"><circle class="i" cx="7.06" cy="7.06" r="7.06"/><circle class="j" cx="7.06" cy="7.06" r="6.06"/></g></g><g transform="translate(-88.195 749.778)"><path class="f" d="M330,533.889V354.422S492.2,532.85,625.446,539.565c148.666-1.512,149.885-92.629,280.524-142.51,109.367-39.166,192.82,67.671,284.3,70.277s154.617-73.222,279.425-78.49c161.7,7.933,291.459,109.242,301.528,114.69V577.6L330,577.729Z" transform="translate(-323.382 -348.575)"/><path class="g" d="M312.953,279.164S480.2,460.88,610.919,462.58,786.332,355.512,891.286,318.844s196,69.944,283.627,71.282,171.522-80.1,279.188-77.882,230.762,63.813,298.815,112.405" transform="translate(-305.074 -272.336)"/><g class="d" transform="translate(1440.987 146.767)"><circle class="i" cx="6.604" cy="6.604" r="6.604"/><circle class="j" cx="6.604" cy="6.604" r="5.604"/></g><g class="d" transform="translate(1139.292 33.056)"><circle class="i" cx="6.604" cy="6.604" r="6.604"/><circle class="j" cx="6.604" cy="6.604" r="5.604"/></g><g class="d" transform="translate(860.094 111.067)"><circle class="i" cx="6.604" cy="6.604" r="6.604"/><circle class="j" cx="6.604" cy="6.604" r="5.604"/></g><g class="d" transform="translate(578.247 39.667)"><circle class="i" cx="6.604" cy="6.604" r="6.604"/><circle class="j" cx="6.604" cy="6.604" r="5.604"/></g><g class="e" transform="translate(296.403 183.79)"><circle class="i" cx="6.604" cy="6.604" r="6.604"/><circle class="j" cx="6.604" cy="6.604" r="5.604"/></g><g class="h" transform="translate(0)"><circle class="i" cx="6.604" cy="6.604" r="6.604"/><circle class="j" cx="6.604" cy="6.604" r="5.604"/></g></g></g></svg>