<svg xmlns="http://www.w3.org/2000/svg" width="23.705" height="13.828" viewBox="0 0 23.705 13.828"><defs><style>.a{fill:#fff;}</style></defs><g transform="translate(0 0)"><path class="a" d="M5.729,107.752c-.79-.79-4.148-.988-5.235-1.086a.363.363,0,0,0-.3.1.749.749,0,0,0-.2.4v8.889a.467.467,0,0,0,.494.494H3.457a.543.543,0,0,0,.494-.3c0-.3,1.778-5.531,1.975-8.1A.394.394,0,0,0,5.729,107.752Z" transform="translate(0 -106.666)"/></g><g transform="translate(8.383 2.074)"><path class="a" d="M188.976,152.849c-.988-.3-1.877-.691-2.667-.988-1.778-.79-2.568-.4-4.148,1.185a3.232,3.232,0,0,0-1.086,2.074c0,.1,0,.1.2.2.494.2,1.185.3,1.877-.79a.513.513,0,0,1,.4-.2,1.831,1.831,0,0,0,.691-.2,4.815,4.815,0,0,1,.691-.3h.2c.1,0,.3.1.4.1.494.494,1.383,1.185,2.272,1.975a22.625,22.625,0,0,1,3.457,3.161h.1C190.655,157.1,189.469,153.738,188.976,152.849Z" transform="translate(-181.061 -151.467)"/></g><g transform="translate(16.791 0.988)"><g transform="translate(0 0)"><path class="a" d="M369.086,128a17.321,17.321,0,0,0-6.124.988l-.3.3a.594.594,0,0,0,.1.4,55.639,55.639,0,0,1,2.864,7.8.656.656,0,0,0,.494.4h2.963a.467.467,0,0,0,.494-.494v-8.889A.467.467,0,0,0,369.086,128Z" transform="translate(-362.666 -128)"/></g></g><g transform="translate(5.136 2.963)"><g transform="translate(0 0)"><path class="a" d="M123.675,178.371c-.4-.889-2.074-2.173-3.556-3.358-.79-.691-1.58-1.284-2.173-1.778-.1.1-.3.1-.3.2a1.861,1.861,0,0,1-.79.2,2.44,2.44,0,0,1-2.864.988,1.168,1.168,0,0,1-.889-.889c-.2-.988.691-2.371,1.383-3.062h-1.975a50.362,50.362,0,0,1-1.58,5.926,11.162,11.162,0,0,0,1.087,1.086c1.877,1.58,4.05,3.161,4.445,3.457a2.807,2.807,0,0,0,1.185.4h.3l-1.58-1.58a.489.489,0,0,1,.691-.691l1.975,1.975c.2.2.4.1.593.1.3-.1.4-.3.494-.593l-2.272-2.272a.489.489,0,1,1,.691-.691l2.469,2.469a1.056,1.056,0,0,0,.79,0c.1-.1.3-.2.4-.4l-2.766-2.766a.489.489,0,0,1,.691-.691l2.864,2.864a.653.653,0,0,0,.593-.1A.671.671,0,0,0,123.675,178.371Z" transform="translate(-110.934 -170.667)"/></g></g></svg>