<svg xmlns="http://www.w3.org/2000/svg" width="25.484" height="25.58" viewBox="0 0 25.484 25.58"><defs><style>.a{fill:#493e82;}</style></defs><g transform="translate(-0.96)"><g transform="translate(0.96)"><path class="a" d="M25.583,20.158l-4.21-4.21a11.615,11.615,0,0,0,1.276-5.1A10.844,10.844,0,1,0,11.8,21.689a11.615,11.615,0,0,0,5.1-1.276l4.21,4.21a3.083,3.083,0,0,0,4.465,0A3.325,3.325,0,0,0,25.583,20.158ZM11.8,19.137A8.293,8.293,0,1,1,20.1,10.844,8.276,8.276,0,0,1,11.8,19.137Z" transform="translate(-0.96)"/></g></g></svg>