<svg xmlns="http://www.w3.org/2000/svg" width="23.237" height="15.492" viewBox="0 0 23.237 15.492"><defs><style>.a{fill:#4285f4;fill-rule:evenodd;}</style></defs><path class="a" d="M76.237,41.468a1.317,1.317,0,0,1-1.331,1.3H54.331A1.317,1.317,0,0,1,53,41.468V41.3A1.317,1.317,0,0,1,54.331,40H74.907a1.317,1.317,0,0,1,1.331,1.3v.169ZM64.9,47.554a1.317,1.317,0,0,1-1.331,1.3H54.331A1.317,1.317,0,0,1,53,47.554v-.169a1.317,1.317,0,0,1,1.331-1.3h9.241a1.317,1.317,0,0,1,1.331,1.3Zm11.335,6.639a1.317,1.317,0,0,1-1.331,1.3H54.331A1.317,1.317,0,0,1,53,54.193v-.169a1.317,1.317,0,0,1,1.331-1.3H74.907a1.317,1.317,0,0,1,1.331,1.3Z" transform="translate(-53 -40)"/></svg>