<svg xmlns="http://www.w3.org/2000/svg" width="27.308" height="27.308" viewBox="0 0 27.308 27.308"><defs><style>.a{fill:#636b73;}</style></defs><path class="a" d="M27.308,13.654A13.654,13.654,0,1,0,2.293,21.218v.01l.094.138c.082.12.17.233.256.35.035.047.069.1.1.142.108.144.22.285.333.424l.1.119a13.659,13.659,0,0,0,1.726,1.727l.113.095c.136.111.273.219.412.324.056.043.114.084.171.126.133.1.266.194.4.286.073.05.148.1.222.144.189.123.38.242.575.355.136.079.272.158.411.233.084.045.169.087.254.13q.221.113.447.219l.228.1q.261.116.529.221l.165.066a13.523,13.523,0,0,0,1.5.472l.063.015q.34.083.687.149l.184.033q.289.051.583.09l.223.029c.191.022.383.039.576.053.072.005.143.012.215.016.26.014.521.023.785.023s.525-.01.785-.024c.072,0,.143-.011.215-.016.193-.014.385-.031.576-.053l.223-.029q.294-.039.583-.09l.184-.033q.347-.066.687-.149l.063-.015a13.523,13.523,0,0,0,1.5-.472l.166-.066q.267-.105.528-.22l.228-.1q.226-.105.447-.219c.085-.043.17-.086.254-.13.139-.075.274-.153.411-.233q.292-.17.575-.355c.074-.048.149-.095.222-.144.136-.092.269-.189.4-.286.057-.042.114-.083.171-.126q.209-.158.412-.324l.113-.095A13.7,13.7,0,0,0,24.131,22.4c.033-.04.066-.079.1-.119.113-.139.225-.28.333-.424.035-.047.069-.095.1-.142.086-.117.174-.23.256-.35l.094-.138v-.01A13.571,13.571,0,0,0,27.308,13.654Zm-.91,0a12.663,12.663,0,0,1-1.634,6.233,6.2,6.2,0,0,0-5.648-4.4v-.015H16.1a.166.166,0,0,1-.166-.166v-.294a.182.182,0,0,1,.126-.16c2.931-1.1,4.758-5.673,4.375-8.87a6.8,6.8,0,0,0-2.222-4.231A12.763,12.763,0,0,1,26.4,13.654ZM23.912,21.2l-.111.148c-.1.133-.2.266-.31.4l-.033.039a12.886,12.886,0,0,1-1.188,1.248l-.076.07c-.126.114-.255.225-.386.335l-.124.1c-.127.1-.255.2-.386.3-.044.033-.09.065-.134.1-.075.055-.151.108-.228.162V19.116H19.116V16.4a5.3,5.3,0,0,1,4.957,4.581C24.02,21.055,23.967,21.131,23.912,21.2Zm-4.289,3.7c-.081.043-.162.084-.244.126q-.206.1-.416.2c-.068.031-.136.063-.2.093q-.263.115-.531.218l-.11.043a12.7,12.7,0,0,1-1.394.432l-.1.024c-.2.047-.394.09-.593.127l-.178.032q-.265.046-.533.081c-.069.009-.137.019-.207.026-.177.02-.355.035-.533.049-.066,0-.132.011-.2.015-.242.015-.483.023-.726.023s-.485-.008-.726-.022c-.066,0-.132-.01-.2-.015-.178-.013-.356-.028-.533-.049-.069-.008-.138-.017-.207-.026q-.268-.035-.533-.081l-.178-.032q-.3-.057-.593-.127l-.1-.024a12.808,12.808,0,0,1-1.395-.432l-.11-.043q-.268-.1-.53-.218c-.069-.03-.137-.061-.205-.093q-.21-.1-.416-.2c-.082-.041-.164-.082-.244-.126-.118-.062-.234-.129-.35-.195l-.054-.031V20.026H20.026v4.657l-.054.031C19.857,24.781,19.741,24.847,19.623,24.909ZM6.011,23.844c-.131-.1-.259-.2-.385-.3l-.125-.1c-.131-.109-.259-.22-.385-.334l-.076-.071a12.822,12.822,0,0,1-1.188-1.248l-.033-.039c-.107-.129-.209-.262-.31-.4-.037-.049-.075-.1-.111-.148-.055-.074-.107-.15-.16-.225A5.3,5.3,0,0,1,8.193,16.4v2.717H6.372V24.1c-.076-.053-.152-.107-.228-.162C6.1,23.909,6.055,23.878,6.011,23.844Zm5.591-9.83C9.425,13.209,7.737,9.49,7.737,6.827c0-.058.007-.115.009-.173l.333-.411a2.692,2.692,0,0,1,3.191-.637,3.641,3.641,0,0,0,4.672-1.593,7.611,7.611,0,0,1,3.615,2.5c.133,2.776-1.5,6.615-3.822,7.488a1.081,1.081,0,0,0-.716,1.012v.294A1.078,1.078,0,0,0,16.1,16.385h.289v2.731H10.923V16.385h.289a1.078,1.078,0,0,0,1.076-1.076V15.02A1.07,1.07,0,0,0,11.6,14.014Zm2.07-13.1h.015a6.036,6.036,0,0,1,.651.038,5.94,5.94,0,0,1,4.894,3.909A8.787,8.787,0,0,0,15.82,3.025l-.391-.107-.152.376a2.732,2.732,0,0,1-3.637,1.48,3.654,3.654,0,0,0-3.649.332A5.923,5.923,0,0,1,13.672.911Zm4.533,18.2H17.3V16.385h.91Zm-8.193,0H9.1V16.385h.91ZM9.095,1.757c-.088.079-.178.154-.263.238a6.781,6.781,0,0,0-2,4.832c0,3.017,1.907,7.1,4.459,8.04a.16.16,0,0,1,.092.152v.289a.166.166,0,0,1-.166.166H8.193v.015a6.2,6.2,0,0,0-5.648,4.4,12.729,12.729,0,0,1,6.55-18.13Z"/></svg>